<svg xmlns="http://www.w3.org/2000/svg" xmlns:xlink="http://www.w3.org/1999/xlink" viewBox="0 0 452.4 221.69"><defs><style>.cls-1,.cls-4,.cls-5,.cls-7{fill:#fff;}.cls-2{isolation:isolate;}.cls-3{clip-path:url(#clip-path);}.cls-4{opacity:0.27;}.cls-5{mix-blend-mode:soft-light;}.cls-6{clip-path:url(#clip-path-2);}.cls-7{opacity:0.53;}</style><clipPath id="clip-path"><path class="cls-1" d="M369.53,5C328.36-8.75,272.66,9.09,222.09,24.52c-3.3.89-5.35,1.62-5.35,1.62s30.41,32.09,55.32,64.32,75.41,58,109.5,25.1c0,0-28.68,14.6-59.2-24.61C313.71,79.83,301.73,63,289.58,48.89c25.92-6.29,50.11-9.56,66.66-4,43.6,14.53,63.31,49.34,50.2,88.67-8.21,24.65-25.68,40.14-48.3,44.69-11.46.89-24-.8-37.14-5.32-27.12-9.31-56.28-50-82-85.91-.41-.58-1-1.39-1.74-2.4-1.3-1.77-2.65-3.47-4-5.14-23.37-31.84-49-61-79.67-71.55C84.32-15.88,26.2,16.37,6.43,74s6.29,118.75,75.51,142.51c41,14.09,96.91-3.25,147.61-18.22,3.31-.86,5.36-1.57,5.36-1.57s-30.12-32.36-54.74-64.81S105.28,73.18,70.89,105.79c0,0,28.81-14.34,59,25.14,8.55,11.2,20.38,28.11,32.4,42.35-26,6.06-50.2,9.11-66.69,3.45-43.47-14.92-62.86-49.9-49.4-89.11s50.25-54.9,93.72-40a47.7,47.7,0,0,1,5,2c-.49-.39-.08-.37.93-.06l-.93.06C191.34,86.9,234.65,192.49,299.8,214.2c69.43,23.14,127.26-9.62,146.51-67.4S439,28.12,369.53,5ZM352.17,179.13l-1.3.14Zm3.15-.42-1.25.18ZM311,173.58c.69.26,1.38.52,2.07.75Q312.05,174,311,173.58Zm10.55,3.21-1.08-.28Zm-3.75-1-1.08-.31Zm7.29,1.82.28.05Zm3.51.67,1.15.19Zm3.59.55,1.14.15Zm4.46.5.64,0Zm3.35.21,1.25,0Zm3.4.08h0Zm5.2-.16-1,.07Z"/></clipPath><clipPath id="clip-path-2"><path class="cls-1" d="M369.53,4.89C328.36-8.83,272.66,9,222.09,24.43c-3.3.89-5.35,1.62-5.35,1.62s30.41,32.09,55.32,64.32,75.41,58,109.5,25.1c0,0-28.68,14.6-59.2-24.61-8.65-11.12-20.63-27.93-32.78-42.06,25.92-6.29,50.11-9.56,66.66-4,43.6,14.53,63.31,49.34,50.2,88.67-8.21,24.65-25.68,40.14-48.3,44.69-11.46.89-24-.8-37.14-5.32-27.12-9.31-56.28-50-82-85.91-.41-.58-1-1.39-1.74-2.4-1.3-1.77-2.65-3.47-4-5.14-23.37-31.84-49-61-79.67-71.55C84.32-16,26.2,16.28,6.43,73.88s6.29,118.75,75.51,142.51c41,14.09,96.91-3.25,147.61-18.22,3.31-.86,5.36-1.57,5.36-1.57s-30.12-32.36-54.74-64.81S105.28,73.09,70.89,105.7c0,0,28.81-14.34,59,25.14,8.55,11.2,20.38,28.11,32.4,42.35-26,6.06-50.2,9.11-66.69,3.45-43.47-14.92-62.86-49.9-49.4-89.11s50.25-54.9,93.72-40a47.68,47.68,0,0,1,5,2c-.49-.39-.08-.37.93-.06l-.93.06c46.49,37.23,89.8,142.82,154.95,164.53,69.43,23.14,127.26-9.62,146.51-67.4S439,28,369.53,4.89ZM352.17,179l-1.3.14Zm3.15-.42-1.25.18ZM311,173.5c.69.26,1.38.52,2.07.75Q312.05,173.9,311,173.5Zm10.55,3.21-1.08-.28Zm-3.75-1-1.08-.31Zm7.29,1.82.28.05Zm3.51.67,1.15.19Zm3.59.55,1.14.15Zm4.46.5.64,0Zm3.35.21,1.25,0Zm3.4.08h0Zm5.2-.16-1,.07Z"/></clipPath></defs><title>Tavola disegno 1</title><g class="cls-2"><g id="Objects"><path class="cls-1" d="M369.53,5C328.36-8.75,272.66,9.09,222.09,24.52c-3.3.89-5.35,1.62-5.35,1.62s30.41,32.09,55.32,64.32,75.41,58,109.5,25.1c0,0-28.68,14.6-59.2-24.61C313.71,79.83,301.73,63,289.58,48.89c25.92-6.29,50.11-9.56,66.66-4,43.6,14.53,63.31,49.34,50.2,88.67-8.21,24.65-25.68,40.14-48.3,44.69-11.46.89-24-.8-37.14-5.32-27.12-9.31-56.28-50-82-85.91-.41-.58-1-1.39-1.74-2.4-1.3-1.77-2.65-3.47-4-5.14-23.37-31.84-49-61-79.67-71.55C84.32-15.88,26.2,16.37,6.43,74s6.29,118.75,75.51,142.51c41,14.09,96.91-3.25,147.61-18.22,3.31-.86,5.36-1.57,5.36-1.57s-30.12-32.36-54.74-64.81S105.28,73.18,70.89,105.79c0,0,28.81-14.34,59,25.14,8.55,11.2,20.38,28.11,32.4,42.35-26,6.06-50.2,9.11-66.69,3.45-43.47-14.92-62.86-49.9-49.4-89.11s50.25-54.9,93.72-40a47.7,47.7,0,0,1,5,2c-.49-.39-.08-.37.93-.06l-.93.06C191.34,86.9,234.65,192.49,299.8,214.2c69.43,23.14,127.26-9.62,146.51-67.4S439,28.12,369.53,5ZM352.17,179.13l-1.3.14Zm3.15-.42-1.25.18ZM311,173.58c.69.26,1.38.52,2.07.75Q312.05,174,311,173.58Zm10.55,3.21-1.08-.28Zm-3.75-1-1.08-.31Zm7.29,1.82.28.05Zm3.51.67,1.15.19Zm3.59.55,1.14.15Zm4.46.5.64,0Zm3.35.21,1.25,0Zm3.4.08h0Zm5.2-.16-1,.07Z"/><g class="cls-3"><path class="cls-1" d="M70.89,105.7s28.81-14.34,59,25.14c8.55,11.2,20.38,28.11,32.4,42.35-26,6.06-50.2,9.11-66.69,3.45-43.47-14.92-62.86-49.9-49.4-89.11s50.25-54.9,93.72-40a47.68,47.68,0,0,1,5,2c-3.06-2.45,28.57,11.22,25.47,9.41,0,0,56.4,33.35,56.82,33.93,26.05,35.67,58.74,72.26,85.94,81.33,16.28,5.43,31.58,6.59,45.06,3.87-11.46.89-24-.8-37.14-5.32-27.12-9.31-56.28-50-82-85.91-.41-.58-1-1.39-1.74-2.4-1.3-1.77-2.65-3.47-4-5.14-23.37-31.84-49-61-79.67-71.55C84.32-16,26.2,16.28,6.43,73.88s6.29,118.75,75.51,142.51c41,14.09,96.91-3.25,147.61-18.22,3.31-.86,5.36-1.57,5.36-1.57s-30.12-32.36-54.74-64.81S105.28,73.09,70.89,105.7Z"/><path class="cls-4" d="M321,172.8c-27.12-9.31-56.28-50-82-85.91-.41-.58-1-1.39-1.74-2.4-1.3-1.77-2.65-3.47-4-5.14-23.37-31.84-49-61-79.67-71.55C84.32-16,26.2,16.28,6.43,73.88A115.4,115.4,0,0,0,0,113.06c35.31-55.83,74.82-69.81,103.65-70.9a87.47,87.47,0,0,1,26,2.43l1.92.46.35.09c3,.77,5.55,1.57,7.56,2.28l.36.12c1,.34,2,.74,3,1.17,1.27.53,2,.87,2,.87-3.06-2.45,28.57,11.22,25.47,9.41,0,0,56.4,33.35,56.82,33.93,26.05,35.67,58.74,72.26,85.94,81.33,16.28,5.43,31.58,6.59,45.06,3.87C346.68,179,334.15,177.32,321,172.8Z"/><path class="cls-4" d="M321,172.8c-27.12-9.31-56.28-50-82-85.91-.41-.58-1-1.39-1.74-2.4-1.3-1.77-2.65-3.47-4-5.14-23.37-31.84-49-61-79.67-71.55C84.32-16,26.2,16.28,6.43,73.88A115.4,115.4,0,0,0,0,113.06c35.31-55.83,74.82-69.81,103.65-70.9a87.47,87.47,0,0,1,26,2.43l1.92.46.35.09c3,.77,5.55,1.57,7.56,2.28l.36.12c1,.34,2,.74,3,1.17,1.27.53,2,.87,2,.87-3.06-2.45,28.57,11.22,25.47,9.41,0,0,56.4,33.35,56.82,33.93,26.05,35.67,58.74,72.26,85.94,81.33,16.28,5.43,31.58,6.59,45.06,3.87C346.68,179,334.15,177.32,321,172.8Z"/><path class="cls-1" d="M369.53,4.89C328.36-8.83,272.66,9,222.09,24.43c-3.3.89-5.35,1.62-5.35,1.62s30.41,32.09,55.32,64.32,75.41,58,109.5,25.1c0,0-28.68,14.6-59.2-24.61-8.65-11.12-20.63-27.93-32.78-42.06,25.92-6.29,50.11-9.56,66.66-4,43.6,14.53,63.31,49.34,50.2,88.67s-49.76,55.35-93.36,40.82c-21.23-7.07-43.86-33.24-65.16-61.34-1.78-2.21-4.25-5.49-7.5-10h0L238,99.63c-41.5-55-93.18-50-93.18-50h0c46.49,37.23,89.8,142.82,154.95,164.53,69.43,23.14,127.26-9.62,146.51-67.4S439,28,369.53,4.89Z"/><path class="cls-5" d="M205.54,124.12h0s86.49,79,152.6,54h0c-13.48,2.71-28.78,1.55-45.06-3.87-21.23-7.07-43.86-33.24-65.16-61.34-1.78-2.21-4.25-5.49-7.5-10h0L238,99.63c-41.5-55-93.18-50-93.18-50C165,65.72,184.55,94.7,205.54,124.12Z"/><path class="cls-5" d="M205.54,124.12h0s86.49,79,152.6,54h0c-13.48,2.71-28.78,1.55-45.06-3.87-21.23-7.07-43.86-33.24-65.16-61.34-1.78-2.21-4.25-5.49-7.5-10h0L238,99.63c-41.5-55-93.18-50-93.18-50C165,65.72,184.55,94.7,205.54,124.12Z"/><path class="cls-1" d="M369.53,4.89C328.36-8.83,272.66,9,222.09,24.43c-3.3.89-5.35,1.62-5.35,1.62s30.41,32.09,55.32,64.32,75.41,58,109.5,25.1c0,0-28.68,14.6-59.2-24.61-8.65-11.12-20.63-27.93-32.78-42.06,25.92-6.29,50.11-9.56,66.66-4,43.6,14.53,63.31,49.34,50.2,88.67-8.21,24.65-25.68,40.14-48.3,44.69-11.46.89-24-.8-37.14-5.32-27.12-9.31-56.28-50-82-85.91-.41-.58-1-1.39-1.74-2.4-1.3-1.77-2.65-3.47-4-5.14-23.37-31.84-49-61-79.67-71.55C84.32-16,26.2,16.28,6.43,73.88s6.29,118.75,75.51,142.51c41,14.09,96.91-3.25,147.61-18.22,3.31-.86,5.36-1.57,5.36-1.57s-30.12-32.36-54.74-64.81S105.28,73.09,70.89,105.7c0,0,28.81-14.34,59,25.14,8.55,11.2,20.38,28.11,32.4,42.35-26,6.06-50.2,9.11-66.69,3.45-43.47-14.92-62.86-49.9-49.4-89.11s50.25-54.9,93.72-40a47.68,47.68,0,0,1,5,2c-.49-.39-.08-.37.93-.06l-.93.06c46.49,37.23,89.8,142.82,154.95,164.53,69.43,23.14,127.26-9.62,146.51-67.4S439,28,369.53,4.89ZM352.17,179l-1.3.14Zm3.15-.42-1.25.18ZM311,173.5c.69.26,1.38.52,2.07.75Q312.05,173.9,311,173.5Zm10.55,3.21-1.08-.28Zm-3.75-1-1.08-.31Zm7.29,1.82.28.05Zm3.51.67,1.15.19Zm3.59.55,1.14.15Zm4.46.5.64,0Zm3.35.21,1.25,0Zm3.4.08h0Zm5.2-.16-1,.07Z"/><g class="cls-6"><path class="cls-5" d="M289.58,48.81s17.28,108.81,92,66.67Z"/><path class="cls-5" d="M162,172.07S144.73,63.25,70,105.4Z"/></g><path class="cls-4" d="M216.74,26.05S426-29.12,451.24,126h15.68V-21.18S300.63-43.53,216.74,26.05Z"/><path class="cls-7" d="M234.58,195.23S25.32,250.41.08,95.29H-15.59V242.46S150.69,264.81,234.58,195.23Z"/></g></g></g></svg>